<svg width="20" height="20" viewBox="0 0 20 20" fill="none" xmlns="http://www.w3.org/2000/svg">
<path d="M5.4165 18.3333V12.5" stroke="#42475B" stroke-width="1.5" stroke-miterlimit="10" stroke-linecap="round" stroke-linejoin="round"/>
<path d="M5.4165 4.16667V1.66667" stroke="#42475B" stroke-width="1.5" stroke-miterlimit="10" stroke-linecap="round" stroke-linejoin="round"/>
<path d="M14.5835 18.3333V15.8333" stroke="#42475B" stroke-width="1.5" stroke-miterlimit="10" stroke-linecap="round" stroke-linejoin="round"/>
<path d="M14.5835 7.50001V1.66667" stroke="#42475B" stroke-width="1.5" stroke-miterlimit="10" stroke-linecap="round" stroke-linejoin="round"/>
<path d="M7.9165 5.83332V10.8333C7.9165 11.75 7.49984 12.5 6.24984 12.5H4.58317C3.33317 12.5 2.9165 11.75 2.9165 10.8333V5.83332C2.9165 4.91666 3.33317 4.16666 4.58317 4.16666H6.24984C7.49984 4.16666 7.9165 4.91666 7.9165 5.83332Z" stroke="#42475B" stroke-width="1.5" stroke-miterlimit="10" stroke-linecap="round" stroke-linejoin="round"/>
<path d="M17.0835 9.16667V14.1667C17.0835 15.0833 16.6668 15.8333 15.4168 15.8333H13.7502C12.5002 15.8333 12.0835 15.0833 12.0835 14.1667V9.16667C12.0835 8.25 12.5002 7.5 13.7502 7.5H15.4168C16.6668 7.5 17.0835 8.25 17.0835 9.16667Z" stroke="#42475B" stroke-width="1.5" stroke-miterlimit="10" stroke-linecap="round" stroke-linejoin="round"/>
</svg>
