<svg width="22" height="22" viewBox="0 0 22 22" fill="none" xmlns="http://www.w3.org/2000/svg">
<path d="M17.2413 2.38242L17.1618 6.60167C17.1505 7.18057 17.525 7.94872 18.0018 8.29383L20.8169 10.3868C22.6218 11.7227 22.3267 13.3592 20.1699 14.0271L16.5034 15.1515C15.8905 15.3408 15.2434 15.9976 15.0845 16.6099L14.2104 19.8828C13.518 22.4656 11.7926 22.7217 10.3623 20.4506L8.36449 17.2778C8.00125 16.6989 7.13855 16.2648 6.45746 16.2982L2.66611 16.4874C-0.0468723 16.621 -0.818765 15.0847 0.952049 13.0586L3.19962 10.4981C3.61962 10.0194 3.81259 9.12877 3.61962 8.52761L2.46178 4.92065C1.79205 2.80546 2.9953 1.63654 5.1407 2.32676L8.48936 3.40662C9.05693 3.58474 9.90828 3.46228 10.385 3.11717L13.8813 0.645739C15.7769 -0.679039 17.2867 0.100242 17.2413 2.38242Z" fill="#8A8AAB"/>
</svg>
