<svg width="20" height="20" viewBox="0 0 20 20" fill="none" xmlns="http://www.w3.org/2000/svg">
<path d="M18.04 4.82L12.28 0.789999C10.71 -0.310001 8.29999 -0.250001 6.78999 0.919999L1.77999 4.83C0.77999 5.61 -0.0100098 7.21 -0.0100098 8.47V15.37C-0.0100098 17.92 2.05999 20 4.60999 20H15.39C17.94 20 20.01 17.93 20.01 15.38V8.6C20.01 7.25 19.14 5.59 18.04 4.82ZM10.75 16C10.75 16.41 10.41 16.75 9.99999 16.75C9.58999 16.75 9.24999 16.41 9.24999 16V13C9.24999 12.59 9.58999 12.25 9.99999 12.25C10.41 12.25 10.75 12.59 10.75 13V16Z" fill="#9122FF"/>
</svg>
