<svg width="100%" height="100%" viewBox="0 0 1152 933" preserveAspectRatio="none" fill="none" xmlns="http://www.w3.org/2000/svg">
    <path d="M257 177C257.464 177 257.696 177 257.893 176.999C306.187 176.784 345.284 137.687 345.499 89.3927C345.5 89.1964 345.5 88.9642 345.5 88.5C345.5 88.0358 345.5 87.8036 345.501 87.6073C345.716 39.3132 384.813 0.216389 433.107 0.000876201C433.304 0 433.536 0 434 0H1011.2C1060.48 0 1085.13 0 1103.95 9.59143C1120.51 18.0283 1133.97 31.4906 1142.41 48.0488C1152 66.8731 1152 91.5154 1152 140.8V792.2C1152 841.485 1152 866.127 1142.41 884.951C1133.97 901.509 1120.51 914.972 1103.95 923.409C1085.13 933 1060.48 933 1011.2 933H140.8C91.5154 933 66.8731 933 48.0488 923.409C31.4906 914.972 18.0283 901.509 9.59143 884.951C0 866.127 0 841.485 0 792.2L0 317.8C0 268.515 0 243.873 9.59143 225.049C18.0283 208.491 31.4906 195.028 48.0488 186.591C66.8731 177 91.5154 177 140.8 177H257Z" fill="white" />
</svg>